<svg xmlns="http://www.w3.org/2000/svg" width="16" height="16" viewBox="0 0 16 16">
    <path data-name="패스 10446" d="M16 0H0v16h16z" style="fill:none"/>
    <path data-name="빼기 1" d="M-2516-2867h-14v-14h14v14zm-4.374-4.43h.028l.067.006h.044a.092.092 0 0 0 .027 0 .99.99 0 0 0 .116.007h.587a.062.062 0 0 0 .022 0 1.016 1.016 0 0 0 .115-.007.1.1 0 0 0 .028 0h.046l.065-.006h.028l.053-.008.052-.008h.027l.068-.011.035-.006h.031l.041-.007H-2518.874l.039-.007a.2.2 0 0 1 .031-.007c.032-.005.062-.012.1-.021h.03l.04-.01.05-.013h.032l.034-.01h.008l.047-.012.015-.005.016-.006.034-.01.051-.014a.083.083 0 0 1 .021-.009h.011c.027-.009.054-.018.08-.029a.1.1 0 0 0 .031-.012.668.668 0 0 0 .078-.027.088.088 0 0 1 .03-.012.576.576 0 0 1 .044-.021l.012-.005.016-.007.016-.008.016-.008a.674.674 0 0 0 .069-.032h.007l.025-.012.026-.012h.006l.034-.017a.15.15 0 0 1 .023-.014h.007l.03-.018.03-.018h.008a.141.141 0 0 1 .025-.013.394.394 0 0 1 .056-.035.2.2 0 0 1 .023-.018l.008-.006a.3.3 0 0 0 .049-.035l.014-.01.017-.012a.337.337 0 0 0 .043-.031l.009-.007.021-.017h.005l.038-.031a.262.262 0 0 1 .022-.021h.005l.01-.01.03-.029.01-.011.015-.016a.457.457 0 0 0 .035-.038.136.136 0 0 0 .025-.028.26.26 0 0 0 .027-.031l.006-.007.022-.03.011-.015.016-.022a.176.176 0 0 0 .021-.031.253.253 0 0 0 .024-.037.176.176 0 0 1 .011-.021l.007-.012a.188.188 0 0 0 .011-.021.158.158 0 0 1 .009-.016V-2872.478l.007-.016a.154.154 0 0 0 .014-.028V-2872.543a.134.134 0 0 0 .008-.024.22.22 0 0 0 .012-.039.267.267 0 0 0 .01-.037.319.319 0 0 0 .009-.034l.005-.024V-2872.728a.2.2 0 0 0 0-.031.156.156 0 0 0 .005-.035v-.068a1 1 0 0 0-.256-.641 2.031 2.031 0 0 0-.594-.454 3.741 3.741 0 0 0-.834-.3 4.193 4.193 0 0 0-.9-.124H-2526.247c-.69 0-1.251-.289-1.251-.639s.564-.64 1.257-.64 1.257.287 1.257.64a.372.372 0 0 1-.056.19h1.564a.849.849 0 0 0 .021-.19v-.069a.147.147 0 0 1-.005-.036v-.017a.213.213 0 0 0 0-.023c0-.013-.005-.025-.008-.035a.127.127 0 0 0-.006-.024v-.016q0-.009-.005-.018a.135.135 0 0 1 0-.017v-.021a.155.155 0 0 0-.007-.019l-.008-.017-.008-.018c0-.013-.01-.025-.015-.038a.11.11 0 0 0-.017-.032.256.256 0 0 0-.013-.03l-.005-.011a.227.227 0 0 1-.012-.02l-.007-.013-.013-.021-.01-.017-.022-.03-.006-.009v-.006a.244.244 0 0 1-.015-.023l-.013-.015-.012-.013-.031-.039-.01-.012v-.006l-.01-.012-.013-.013a.142.142 0 0 0-.023-.022l-.006-.006a.117.117 0 0 0-.022-.022l-.021-.021-.016-.017a.182.182 0 0 1-.026-.023l-.022-.019-.015-.013-.01-.009h-.006l-.021-.018-.024-.018h-.005l-.014-.01a.2.2 0 0 1-.031-.022l-.032-.022-.019-.013-.014-.01-.014-.01-.036-.023-.019-.012a.069.069 0 0 1-.016-.008l-.015-.008-.033-.019-.027-.016-.014-.009-.009-.005-.009-.005-.038-.02-.025-.013a.083.083 0 0 1-.018-.009l-.014-.008-.068-.031a.264.264 0 0 1-.032-.015.617.617 0 0 0-.073-.032l-.017-.007-.015-.006-.037-.015-.038-.015-.016-.006-.017-.007a.746.746 0 0 0-.081-.028h-.012l-.02-.006-.042-.014-.041-.014H-2524.878l-.031-.009h-.024l-.032-.009-.031-.007h-.033l-.061-.014-.023-.006h-.007c-.03-.009-.06-.014-.1-.021l-.031-.007-.056-.01-.042-.008h-.031l-.037-.006c-.022 0-.043-.007-.066-.012h-.028l-.108-.015h-.028l-.081-.007h-.029a.058.058 0 0 0-.025 0h-.115a.049.049 0 0 0-.023 0H-2526.487a.055.055 0 0 0-.023 0H-2526.625a.062.062 0 0 0-.025 0h-.029l-.082.007h-.03l-.1.015h-.028l-.1.018h-.031l-.042.008-.056.01-.03.006a3.738 3.738 0 0 0-.1.021.186.186 0 0 0-.03.007c-.022 0-.043.01-.063.015h-.03l-.03.007-.039.011h-.006l-.047.013h-.012l-.017.005-.027.008-.06.017-.016.007h-.014a.644.644 0 0 0-.074.026.193.193 0 0 0-.039.015l-.026.01a.451.451 0 0 0-.05.02.1.1 0 0 0-.032.012l-.037.015h-.009l-.028.011h-.01l-.022.01-.016.008-.016.008-.036.018-.012.006a.121.121 0 0 1-.021.009l-.031.018-.031.018h-.008a.115.115 0 0 0-.026.015l-.022.012-.038.02-.03.02-.014.009h-.005l-.036.023-.01.006-.022.015-.01.007a.57.57 0 0 1-.04.028l-.013.01-.012.009a.2.2 0 0 1-.026.02l-.021.016-.021.018-.007.007-.015.012-.028.023-.014.014-.007.007-.008.008a.366.366 0 0 0-.033.03h-.005l-.01.01-.017.018-.019.02-.016.018-.006.006a.161.161 0 0 0-.019.021l-.031.038-.013.016-.008.01-.027.037-.021.031a.269.269 0 0 0-.014.022l-.009.015-.009.014-.012.019-.007.014v.007l-.009.016-.006.015-.009.021-.011.027v.012c0 .012-.01.025-.014.035a.146.146 0 0 0-.007.023v.017a.08.08 0 0 1 0 .011c0 .009-.005.016-.007.024v.014c0 .008 0 .016-.006.026s0 .015 0 .022v.013a.215.215 0 0 1-.005.041.18.18 0 0 1 0 .02.121.121 0 0 0 0 .015.031.031 0 0 1 0 .012V-2875.023a.981.981 0 0 0 .259.64 1.377 1.377 0 0 0 .188.187 1.882 1.882 0 0 0 .234.171 2.6 2.6 0 0 0 .276.151 3.594 3.594 0 0 0 .654.234c.123.032.263.057.373.077.133.021.276.043.427.056s.276.01.415.01h6.395c.689 0 1.249.286 1.249.638s-.563.639-1.256.639-1.257-.287-1.257-.639a.361.361 0 0 1 .058-.191h-1.563a.8.8 0 0 0-.023.191v.056a.023.023 0 0 1 0 .008.124.124 0 0 0 0 .03v.048c0 .009.005.022.008.035s0 .016 0 .024v.015a.1.1 0 0 1 .01.035l.009.021.007.016a.122.122 0 0 0 .012.035v.009a.256.256 0 0 0 .013.03.075.075 0 0 0 .008.02.1.1 0 0 1 .007.016.329.329 0 0 0 .016.031v.006l.008.014a.168.168 0 0 1 .011.02v.008a.324.324 0 0 0 .021.03.278.278 0 0 0 .019.028l.017.023.012.017.016.021.005.007.013.016.016.019a.178.178 0 0 1 .014.017l.011.014.012.012.023.023.007.008a.088.088 0 0 0 .02.018l.011.01.025.023a.376.376 0 0 0 .028.026c.01.01.022.021.035.031l.008.006.022.017.018.015.027.022a.152.152 0 0 0 .021.015l.009.006.013.009.041.028.015.01.015.01.02.013h.007l.028.017a.238.238 0 0 1 .033.02.294.294 0 0 1 .031.018l.027.016.02.01.012.007.028.015h.006l.031.017.015.008.015.008.027.013h.006a.314.314 0 0 0 .037.017l.033.015.037.016h.011l.022.009a.2.2 0 0 1 .032.016c.018.005.036.012.055.019h.005l.018.007a.069.069 0 0 0 .02.009h.011a.818.818 0 0 0 .08.029l.024.007h.009c.024.009.055.02.085.028l.015.005.016.006.053.014.034.01h.011l.02.005.058.014h.01l.024.006h.031c.033.008.063.015.1.021a.188.188 0 0 1 .03.007l.05.009.051.009h.056a.662.662 0 0 1 .074.013H-2520.408l.052.007zm-8.6-1.626a.189.189 0 0 0 0 .035l-.005.024v.014a.139.139 0 0 1 0 .018v.084a.946.946 0 0 0 .248.621 3.227 3.227 0 0 0 2.292.854h.158a3.353 3.353 0 0 0 2.453-.856.974.974 0 0 0 .25-.621v-.067a.1.1 0 0 1 0-.018.137.137 0 0 0 0-.017.179.179 0 0 1 0-.02v-.018l-.008-.035h-1.516a.356.356 0 0 1 .053.179c0 .342-.547.621-1.219.621s-1.216-.279-1.216-.621a.332.332 0 0 1 .052-.179zm9.278-2.693c.67 0 1.216.279 1.216.622a.331.331 0 0 1-.052.178h1.515a.131.131 0 0 0 .005-.033c0-.014 0-.028.007-.041a.139.139 0 0 1 0-.018V-2875.068a.537.537 0 0 0 0-.055.953.953 0 0 0-.249-.622 3.224 3.224 0 0 0-2.291-.854h-.16a3.351 3.351 0 0 0-2.453.856.962.962 0 0 0-.249.622v.084a.144.144 0 0 0 0 .018.226.226 0 0 0 0 .041v.011l.006.022h1.515a.358.358 0 0 1-.053-.178c.02-.346.567-.626 1.239-.626z" transform="translate(2531 2882)" style="fill:#fff"/>
</svg>
