<svg xmlns="http://www.w3.org/2000/svg" width="16" height="16" viewBox="0 0 16 16">
    <path data-name="패스 10446" d="M16 0H0v16h16z" style="fill:none"/>
    <path data-name="패스 10464" d="m8.82 3-2.61 9.741.965.259 2.61-9.741z" style="fill:#fff"/>
    <path data-name="패스 10465" d="M16 8.5v-1h-1v1z" style="fill:#fff"/>
    <path data-name="패스 10466" d="M14 2V1h-2v1z" style="fill:#fff"/>
    <path data-name="패스 10467" d="M14 7.5h1V2h-1z" style="fill:#fff"/>
    <path data-name="패스 10468" d="M12 14v1h2v-1z" style="fill:#fff"/>
    <path data-name="패스 10469" d="M14 14h1V8.5h-1z" style="fill:#fff"/>
    <path data-name="패스 10470" d="M1 8.5v-1H0v1z" style="fill:#fff"/>
    <path data-name="패스 10471" d="M4 2V1H2v1z" style="fill:#fff"/>
    <path data-name="패스 10472" d="M2 2H1v5.5h1z" style="fill:#fff"/>
    <path data-name="패스 10473" d="M2 14v1h2v-1z" style="fill:#fff"/>
    <path data-name="패스 10474" d="M2 8.5H1V14h1z" style="fill:#fff"/>
</svg>
